<?xml version="1.0" standalone="no"?>
<!DOCTYPE svg PUBLIC "-//W3C//DTD SVG 20010904//EN"
 "http://www.w3.org/TR/2001/REC-SVG-20010904/DTD/svg10.dtd">
<svg version="1.0" xmlns="http://www.w3.org/2000/svg"
 width="150.000000pt" height="150.000000pt" viewBox="0 0 150.000000 150.000000"
 preserveAspectRatio="xMidYMid meet">
<metadata>
Created by potrace 1.13, written by Peter Selinger 2001-2015
</metadata>
<g transform="translate(0.000000,150.000000) scale(0.100000,-0.100000)"
fill="#000000" stroke="none">
<path d="M0 750 l0 -750 750 0 750 0 0 750 0 750 -750 0 -750 0 0 -750z m897
536 c58 -27 132 -91 164 -142 11 -19 27 -34 35 -34 22 0 54 -37 54 -63 0 -64
-84 -88 -123 -35 -18 23 -19 31 -8 54 10 24 8 31 -26 75 -118 154 -284 171
-424 42 l-59 -55 0 30 c0 23 10 41 38 68 95 93 227 115 349 60z m321 -380 c40
-38 44 -46 33 -60 -11 -14 -11 -16 3 -16 24 0 56 -37 56 -65 0 -55 -73 -86
-107 -45 -17 19 -17 19 -30 0 -11 -15 -24 -19 -58 -18 l-45 2 0 88 c0 72 3 88
15 88 10 0 15 -10 15 -29 0 -24 3 -28 24 -24 15 3 31 -2 43 -14 19 -19 21 -19
42 -2 12 10 17 20 11 24 -5 3 -10 15 -10 26 0 29 -48 69 -82 69 -16 0 -42 -7
-58 -15 -24 -12 -28 -13 -24 -1 8 20 44 35 87 35 32 1 46 -6 85 -43z m-689
-40 c8 -10 9 -16 1 -21 -24 -15 3 -21 84 -18 78 2 86 0 91 -18 l7 -21 22 21
c26 25 59 27 80 5 15 -14 16 -12 16 20 0 35 1 36 39 36 47 0 76 -23 66 -54
-10 -29 -10 -46 -1 -83 10 -45 -18 -45 -30 -1 -6 18 -17 34 -27 36 -13 3 -17
-4 -17 -32 0 -25 -4 -36 -15 -36 -11 0 -15 11 -15 43 0 27 -3 37 -9 29 -5 -8
-24 -18 -42 -22 l-34 -8 33 -1 c47 -1 41 -35 -6 -39 -39 -4 -61 11 -63 42 -1
15 -3 12 -8 -9 -4 -21 -13 -31 -28 -33 -22 -3 -22 -1 -17 45 8 55 -9 51 -23
-7 -7 -25 -15 -35 -29 -35 -10 0 -18 5 -17 10 7 45 6 61 -2 65 -6 3 -14 -14
-19 -37 -8 -33 -15 -43 -29 -43 -17 0 -19 6 -14 58 l6 57 -12 -55 -12 -55 -50
0 c-47 0 -50 2 -56 30 -4 17 -7 24 -8 18 -2 -23 -40 -53 -66 -53 -18 0 -25 -5
-25 -19 0 -23 -15 -35 -34 -28 -11 4 -10 21 3 89 l17 83 41 2 c27 2 47 -3 57
-13 11 -10 16 -11 16 -3 0 13 38 49 52 49 4 0 8 -7 8 -15 0 -14 6 -17 28 -14
4 1 6 6 4 11 -4 15 6 38 16 38 5 0 15 -6 21 -14z m-345 -38 c-12 -72 -11 -83
11 -83 16 0 22 11 33 63 11 50 18 62 33 62 22 0 23 -10 8 -81 -13 -61 -38 -89
-78 -89 -48 0 -64 25 -57 86 8 70 14 84 38 84 18 0 19 -4 12 -42z m1166 12 c0
-5 7 -10 15 -10 8 0 15 -7 15 -15 0 -8 -7 -15 -15 -15 -10 0 -15 -10 -15 -34
0 -21 6 -36 15 -40 21 -8 19 -26 -3 -26 -28 0 -42 21 -42 61 0 21 -4 41 -10
44 -6 4 -5 13 3 25 12 21 37 27 37 10z m-312 -26 c45 -31 19 -114 -36 -114
-56 0 -83 69 -42 110 24 24 48 25 78 4z m-8 -145 c0 -11 13 -34 29 -50 39 -38
87 -39 130 -3 17 14 31 21 31 16 0 -6 -14 -22 -31 -36 -22 -19 -42 -26 -71
-26 -34 0 -47 7 -90 48 -51 49 -56 72 -17 72 13 0 19 -7 19 -21z m-564 -127
c22 -14 34 -50 25 -74 -6 -16 -3 -31 7 -48 39 -62 95 -118 144 -145 45 -25 64
-30 123 -30 88 1 152 31 219 106 l46 51 0 -35 c0 -28 -9 -42 -50 -81 -72 -68
-128 -90 -220 -90 -57 1 -87 6 -124 24 -59 28 -155 115 -181 164 -11 20 -27
36 -37 36 -20 0 -58 46 -58 71 0 42 70 76 106 51z"/>
<path d="M1104 786 c-10 -26 1 -51 22 -54 24 -3 38 20 29 49 -7 22 -43 25 -51
5z"/>
<path d="M1227 793 c-12 -11 -8 -50 7 -62 11 -9 18 -8 30 4 18 18 19 25 10 49
-6 16 -35 22 -47 9z"/>
<path d="M860 825 c0 -18 5 -25 19 -25 26 0 36 17 21 35 -19 23 -40 18 -40
-10z"/>
<path d="M321 768 c-5 -13 -7 -27 -4 -31 8 -13 33 14 33 34 0 26 -19 24 -29
-3z"/>
<path d="M450 781 c0 -5 -3 -16 -6 -24 -3 -8 1 -17 9 -20 11 -4 16 3 19 24 3
20 0 29 -9 29 -7 0 -13 -4 -13 -9z"/>
<path d="M977 794 c-12 -13 -8 -51 8 -64 21 -18 47 5 43 39 -3 26 -35 41 -51
25z"/>
</g>
</svg>
