<?xml version="1.0" standalone="no"?>
<!DOCTYPE svg PUBLIC "-//W3C//DTD SVG 20010904//EN"
 "http://www.w3.org/TR/2001/REC-SVG-20010904/DTD/svg10.dtd">
<svg version="1.0" xmlns="http://www.w3.org/2000/svg"
 width="72.000000pt" height="72.000000pt" viewBox="0 0 72.000000 72.000000"
 preserveAspectRatio="xMidYMid meet">
<metadata>
Created by potrace 1.13, written by Peter Selinger 2001-2015
</metadata>
<g transform="translate(0.000000,72.000000) scale(0.100000,-0.100000)"
fill="#000000" stroke="none">
<path d="M290 584 c-45 -20 -68 -41 -91 -86 -16 -32 -19 -60 -19 -201 0 -175
3 -187 50 -187 39 0 50 18 50 83 0 47 3 58 14 54 96 -37 215 10 252 100 28 66
9 159 -43 205 -51 46 -147 61 -213 32z m145 -116 c21 -25 25 -38 21 -62 -10
-46 -39 -71 -86 -71 -47 0 -76 25 -86 71 -9 46 34 94 86 94 31 0 44 -6 65 -32z"/>
</g>
</svg>
