<?xml version="1.0" encoding="utf-8"?>
<!-- Generator: Adobe Illustrator 19.1.0, SVG Export Plug-In . SVG Version: 6.00 Build 0)  -->
<svg version="1.1" id="Layer_1" xmlns="http://www.w3.org/2000/svg" xmlns:xlink="http://www.w3.org/1999/xlink" x="0px" y="0px"
	 viewBox="0 0 109.8 74.2" style="enable-background:new 0 0 109.8 74.2;" xml:space="preserve">
<style type="text/css">
	.st0{fill:#FFFFFF;}
</style>
<path class="st0" d="M40.3,0.4h-6.9c0,0.3,0,0.6,0,0.8v30c0,5.6-4.4,10.2-9.7,10.2S14,36.8,14,31.2v-30c0-0.3,0-0.6,0-0.8H0v18.2
	v13.5V33c0,12.1,9.8,21.9,21.9,21.9h3.6c12.1,0,21.9-9.8,21.9-21.9v-0.9v-5.3v-8.2V0.4H40.3z"/>
<path class="st0" d="M106.2,24.1c-0.2-2.9-0.7-5.5-1.5-8l5.1-1.9L91.5,1.7l-5.7,21.7l5.6-2.2c0.5,2,0.8,4.3,0.8,6.9
	c0,4.8-1,8.6-3.1,11.4c-2,2.8-4.8,4.2-8.4,4.2c-3.8,0-6.8-1.4-8.8-4.2c-2-2.5-3.1-6.3-3.1-11.4c0-5.5,1-9.5,2.9-12
	c2-2.8,4.9-4.2,8.6-4.2c1.2,0,2.3,0.2,3.4,0.4l3-11.8C85,0.2,83.2,0,81.5,0C75,0,68.9,1.7,63.3,5.1s-8.4,9.8-8.4,19.1v37.7v12.3h7h7
	V62.1l0,0V47.6c1.6,2.8,3.8,4.9,6.5,6.2c2.6,1.2,5.6,1.8,9,1.8c6.4,0,11.7-2.5,15.8-7.6c3.5-4.5,5.5-10.2,6-17
	c0-0.6,0.1-1.3,0.1-1.9c0-0.5,0-2.2,0-2.6C106.3,25.7,106.3,24.9,106.2,24.1z"/>
</svg>
